<svg width="146" height="27" viewBox="0 0 146 27" fill="none" xmlns="http://www.w3.org/2000/svg">
<path d="M20.412 0.727999V5.66H13.716V26H7.56V5.66H0.864V0.727999H20.412ZM29.5495 0.727999V15.848C29.5495 17.36 29.9215 18.524 30.6655 19.34C31.4095 20.156 32.5015 20.564 33.9415 20.564C35.3815 20.564 36.4855 20.156 37.2535 19.34C38.0215 18.524 38.4055 17.36 38.4055 15.848V0.727999H44.5615V15.812C44.5615 18.068 44.0815 19.976 43.1215 21.536C42.1615 23.096 40.8655 24.272 39.2335 25.064C37.6255 25.856 35.8255 26.252 33.8335 26.252C31.8415 26.252 30.0535 25.868 28.4695 25.1C26.9095 24.308 25.6735 23.132 24.7615 21.572C23.8495 19.988 23.3935 18.068 23.3935 15.812V0.727999H29.5495ZM65.6603 8.72C65.2043 7.88 64.5443 7.244 63.6803 6.812C62.8403 6.356 61.8443 6.128 60.6923 6.128C58.7003 6.128 57.1043 6.788 55.9043 8.108C54.7043 9.404 54.1043 11.144 54.1043 13.328C54.1043 15.656 54.7283 17.48 55.9763 18.8C57.2483 20.096 58.9883 20.744 61.1963 20.744C62.7083 20.744 63.9803 20.36 65.0123 19.592C66.0683 18.824 66.8363 17.72 67.3163 16.28H59.5043V11.744H72.8963V17.468C72.4403 19.004 71.6603 20.432 70.5563 21.752C69.4763 23.072 68.0963 24.14 66.4163 24.956C64.7363 25.772 62.8403 26.18 60.7283 26.18C58.2323 26.18 56.0003 25.64 54.0323 24.56C52.0883 23.456 50.5643 21.932 49.4603 19.988C48.3803 18.044 47.8403 15.824 47.8403 13.328C47.8403 10.832 48.3803 8.612 49.4603 6.668C50.5643 4.7 52.0883 3.176 54.0323 2.096C55.9763 0.991999 58.1963 0.439999 60.6923 0.439999C63.7163 0.439999 66.2603 1.172 68.3243 2.636C70.4123 4.1 71.7923 6.128 72.4643 8.72H65.6603ZM92.0382 21.536H82.6062L81.0942 26H74.6502L83.7942 0.727999H90.9222L100.066 26H93.5502L92.0382 21.536ZM90.4542 16.784L87.3222 7.532L84.2262 16.784H90.4542ZM111.993 26.252C110.145 26.252 108.489 25.952 107.025 25.352C105.561 24.752 104.385 23.864 103.497 22.688C102.633 21.512 102.177 20.096 102.129 18.44H108.681C108.777 19.376 109.101 20.096 109.653 20.6C110.205 21.08 110.925 21.32 111.813 21.32C112.725 21.32 113.445 21.116 113.973 20.708C114.501 20.276 114.765 19.688 114.765 18.944C114.765 18.32 114.549 17.804 114.117 17.396C113.709 16.988 113.193 16.652 112.569 16.388C111.969 16.124 111.105 15.824 109.977 15.488C108.345 14.984 107.013 14.48 105.981 13.976C104.949 13.472 104.061 12.728 103.317 11.744C102.573 10.76 102.201 9.476 102.201 7.892C102.201 5.54 103.053 3.704 104.757 2.384C106.461 1.04 108.681 0.368 111.417 0.368C114.201 0.368 116.445 1.04 118.149 2.384C119.853 3.704 120.765 5.552 120.885 7.928H114.225C114.177 7.112 113.877 6.476 113.325 6.02C112.773 5.54 112.065 5.3 111.201 5.3C110.457 5.3 109.857 5.504 109.401 5.912C108.945 6.296 108.717 6.86 108.717 7.604C108.717 8.42 109.101 9.056 109.869 9.512C110.637 9.968 111.837 10.46 113.469 10.988C115.101 11.54 116.421 12.068 117.429 12.572C118.461 13.076 119.349 13.808 120.093 14.768C120.837 15.728 121.209 16.964 121.209 18.476C121.209 19.916 120.837 21.224 120.093 22.4C119.373 23.576 118.317 24.512 116.925 25.208C115.533 25.904 113.889 26.252 111.993 26.252Z" fill="#025196"/>
<path d="M124.53 21.32V16.352L135.906 0.079999H142.782V15.992H145.734V21.32H142.782V26H136.626V21.32H124.53ZM137.058 6.848L131.01 15.992H137.058V6.848Z" fill="#FDB338"/>
</svg>
